<svg version="1.1" id="Layer_1" xmlns="http://www.w3.org/2000/svg" xmlns:xlink="http://www.w3.org/1999/xlink" x="0px" y="0px"
	 width="100%" viewBox="0 0 800 800" enable-background="new 0 0 800 800" xml:space="preserve">
<path fill="#FFFFFF" opacity="1.000000" stroke="none" 
	d="
M1.000000,277.000000 
	C1.000000,184.666672 1.000000,92.833336 1.000000,1.000000 
	C267.666656,1.000000 534.333313,1.000000 801.000000,1.000000 
	C801.000000,267.666656 801.000000,534.333313 801.000000,801.000000 
	C534.333313,801.000000 267.666656,801.000000 1.000000,801.000000 
	C1.000000,626.500000 1.000000,452.000000 1.000000,277.000000 
M533.809631,377.641083 
	C533.873962,373.051758 533.841370,368.458221 534.042114,363.874878 
	C534.147522,361.466858 533.384766,360.501892 530.553162,361.009888 
	C530.553162,361.009888 530.112000,360.929626 530.014832,360.005859 
	C530.010742,354.358429 529.901184,348.708313 530.046204,343.064728 
	C530.121521,340.134369 529.156128,338.643311 525.984924,338.160553 
	C525.678894,331.522797 520.107361,335.229706 517.020569,333.610870 
	C517.020569,332.435699 517.020569,331.177246 517.893433,329.978424 
	C522.775085,330.618439 527.124573,329.309357 530.771545,326.072968 
	C537.883301,319.761780 544.891907,313.334381 552.571899,306.715088 
	C554.753601,304.451477 556.935364,302.187836 559.845642,300.011871 
	C573.815552,306.596436 587.785461,313.181030 601.886414,319.827362 
	C602.343994,319.005310 602.767700,318.481903 602.948547,317.884857 
	C609.644043,295.781891 616.339722,273.678925 622.983826,251.560455 
	C626.448425,240.026855 629.816589,228.464279 633.750305,216.556839 
	C641.142883,207.894012 648.380676,199.091400 656.010010,190.642334 
	C658.772339,187.583160 660.598999,184.561584 659.976135,180.461487 
	C658.815491,172.821045 657.660461,165.173813 656.170044,157.594879 
	C655.901062,156.226685 654.036316,155.172302 652.987183,153.170944 
	C663.297852,118.629967 673.608459,84.088982 684.024475,49.195137 
	C673.375122,50.501060 663.202576,51.826424 653.010193,52.976223 
	C643.060242,54.098671 633.072876,54.898335 623.133362,56.100109 
	C610.787109,57.592903 598.479553,59.402622 586.143494,60.983360 
	C574.775146,62.440094 563.391235,63.774967 551.216919,64.996895 
	C545.009888,63.662022 538.817139,62.256294 532.593079,61.006302 
	C517.407104,57.956459 502.206635,54.978748 486.726532,51.336712 
	C480.273773,37.097435 470.165710,26.147930 456.426666,18.813805 
	C450.337250,15.563165 443.433502,13.818599 437.404510,10.478609 
	C427.530212,5.008339 417.267517,2.135026 405.083466,3.028857 
	C399.145721,4.143713 392.797333,4.293441 387.368042,6.603405 
	C379.550446,9.929522 372.309143,14.673676 364.988251,19.088560 
	C354.220154,25.582279 345.119507,33.841587 338.100067,45.002895 
	C329.709961,46.180378 321.314453,47.320843 312.931030,48.544113 
	C300.680420,50.331665 288.428986,52.117893 276.197021,54.027031 
	C270.445282,54.924747 264.738037,56.107658 258.134796,57.028309 
	C248.780060,56.351521 239.433563,55.513706 230.068741,55.034126 
	C214.391113,54.231255 198.704010,53.597855 183.016632,53.006138 
	C171.599319,52.575489 160.174957,52.332760 148.754395,51.984756 
	C147.940536,51.959957 147.135620,51.694778 146.320511,51.649132 
	C140.971573,51.349586 135.620972,51.079685 130.067825,50.789497 
	C132.493149,63.003590 134.741074,74.341072 136.996124,85.677139 
	C140.557068,103.577919 144.191330,121.464493 147.655655,139.383926 
	C149.232315,147.539261 150.476974,155.758759 151.179108,163.922409 
	C148.804520,163.281693 145.742950,161.458160 144.245560,162.327805 
	C142.700439,163.225189 142.302185,166.705658 142.063400,169.121384 
	C141.511108,174.708603 141.427582,180.340317 141.023315,185.944550 
	C140.656647,191.027588 142.326996,195.137421 146.694672,197.821838 
	C151.343567,200.679047 156.149506,203.280731 160.971115,206.832489 
	C161.312119,208.757874 161.621338,210.689499 161.999207,212.607635 
	C164.865997,227.159851 167.785583,241.701797 170.610596,256.262115 
	C173.126221,269.227844 175.481598,282.224823 178.023376,295.185333 
	C179.642731,303.442505 181.472992,311.658295 183.264465,320.157257 
	C203.818512,309.613251 223.907150,299.307983 244.259644,289.626160 
	C254.855225,306.314941 271.313263,316.049988 287.669952,325.754150 
	C294.812195,329.991577 298.983734,328.604370 303.960541,322.937408 
	C303.640350,329.027435 303.261108,335.115082 303.013763,341.208069 
	C302.631165,350.632050 302.327393,360.059326 302.012512,369.485931 
	C301.840149,374.646515 301.351166,379.940063 306.988312,383.958801 
	C306.992126,421.820129 307.032379,459.681580 306.950348,497.542694 
	C306.940857,501.928009 308.025024,504.924866 312.984863,506.072601 
	C313.656097,524.800476 314.327454,543.528381 314.998505,562.256287 
	C315.663544,580.817139 316.347534,599.377258 316.988098,617.938965 
	C317.680359,637.998657 318.373291,658.058411 318.986969,678.120605 
	C319.403229,691.729675 319.671021,705.343201 320.047363,718.953552 
	C320.078888,720.093262 320.541016,721.216614 320.618408,722.360046 
	C321.577423,736.528076 323.667236,750.661011 318.459229,764.636353 
	C315.464996,772.671021 313.695343,781.162109 310.783447,789.900208 
	C310.274506,792.120544 309.244873,794.400879 309.490631,796.534241 
	C309.602631,797.506226 312.220856,798.862122 313.725555,798.892456 
	C323.984924,799.099854 334.252136,799.110962 344.513245,798.952087 
	C349.368713,798.876892 350.801025,796.065063 348.869049,790.585754 
	C348.704498,788.287109 348.769226,785.944458 348.337433,783.697144 
	C345.878998,770.901855 342.493500,758.298462 344.900604,744.961060 
	C347.242676,731.984131 348.717957,718.850830 350.580048,705.787109 
	C352.046722,695.497559 353.584442,685.217651 354.979370,674.918396 
	C356.795319,661.510437 358.433075,648.078186 360.272095,634.673523 
	C362.446564,618.824036 364.747131,602.991821 367.005646,587.153931 
	C368.891632,573.928528 370.891052,560.718567 372.663300,547.478027 
	C374.239441,535.702698 375.572662,523.894897 377.854156,511.999573 
	C384.667786,511.953583 384.988312,511.636536 385.002960,505.011749 
	C385.005890,503.682190 385.048431,502.352661 385.772003,500.599884 
	C386.721008,494.323944 387.672089,488.048279 388.618561,481.771973 
	C390.414062,469.865112 392.063446,457.933990 394.042603,446.057770 
	C395.881256,435.024567 398.070465,424.049774 400.915314,413.003601 
	C403.290070,413.509216 405.874664,413.597778 407.972748,414.653320 
	C409.631439,415.487793 411.608124,417.363586 411.874756,419.028229 
	C414.121857,433.058014 416.093597,447.134125 417.977356,461.219177 
	C419.777954,474.682617 421.208710,488.196808 423.111237,501.644928 
	C424.683899,512.761475 425.132935,512.951111 436.081940,513.807739 
	C436.740173,518.053345 437.440063,522.293030 438.048981,526.545715 
	C439.947266,539.802917 441.826019,553.062988 443.684357,566.325806 
	C445.818542,581.557312 447.934357,596.791382 450.036743,612.027344 
	C451.935242,625.785767 453.789642,639.550354 455.692169,653.308228 
	C457.119385,663.629028 458.615082,673.940308 460.038818,684.261597 
	C461.914185,697.856995 463.858887,711.444214 465.565765,725.061035 
	C466.882446,735.565063 468.585297,746.093750 468.817383,756.640076 
	C469.046021,767.028442 467.639954,777.452759 466.131012,788.017334 
	C463.068451,794.635193 465.592163,798.985901 472.523804,798.998779 
	C480.816254,799.014160 489.112671,799.140015 497.398499,798.905396 
	C499.466766,798.846741 502.765167,798.056580 503.242950,796.767029 
	C503.895172,795.006653 502.387451,792.445984 501.927002,789.369812 
	C502.952026,783.913635 499.191864,780.280396 496.949860,775.280823 
	C495.633240,766.308472 493.248779,757.339355 493.220856,748.363037 
	C493.161530,729.294922 494.330597,710.223083 494.991821,691.152588 
	C495.331085,681.367737 495.686493,671.583313 495.990082,661.797302 
	C496.674744,639.728821 497.301849,617.658447 498.019745,595.591064 
	C498.213593,589.633240 498.811188,583.686890 498.942261,577.729065 
	C499.322357,560.451477 499.559662,543.170776 499.897064,525.118347 
	C500.219635,523.102905 500.542175,521.087524 500.937195,518.510864 
	C500.926331,518.322510 500.915497,518.134155 500.934845,517.118408 
	C500.961426,515.738403 500.988037,514.358459 501.722198,512.758179 
	C503.479889,511.137787 506.550964,509.679596 506.774414,507.869843 
	C507.919586,498.594482 508.472443,489.235901 508.960876,479.892242 
	C509.469299,470.166718 509.622711,460.423126 510.018219,450.690948 
	C510.278900,444.275360 510.667206,437.864502 511.044922,431.454254 
	C511.604553,421.957397 512.205444,412.463013 512.911377,402.156769 
	C513.300903,399.782623 513.690369,397.408478 514.996948,394.974365 
	C517.797729,394.974579 520.598450,394.980774 523.399231,394.973816 
	C530.128662,394.957092 530.189514,394.888489 529.980530,387.126099 
	C530.023010,384.104919 530.065552,381.083740 530.821960,377.999542 
	C531.534546,377.949890 532.247192,377.900208 533.809631,377.641083 
z"/>
<path fill="#D66363" opacity="1.000000" stroke="none" 
	d="
M151.872238,163.949158 
	C150.476974,155.758759 149.232315,147.539261 147.655655,139.383926 
	C144.191330,121.464493 140.557068,103.577919 136.996124,85.677139 
	C134.741074,74.341072 132.493149,63.003590 130.067825,50.789497 
	C135.620972,51.079685 140.971573,51.349586 146.320511,51.649132 
	C147.135620,51.694778 147.940536,51.959957 148.754395,51.984756 
	C160.174957,52.332760 171.599319,52.575489 183.016632,53.006138 
	C198.704010,53.597855 214.391113,54.231255 230.068741,55.034126 
	C239.433563,55.513706 248.780060,56.351521 258.569153,57.514236 
	C260.437653,68.141068 261.738251,78.303070 263.335449,88.418228 
	C266.117920,106.039932 269.138947,123.623856 271.958313,141.239883 
	C275.743866,164.892853 279.432831,188.561295 283.103699,212.572479 
	C275.321960,229.908676 267.599762,246.895477 259.585938,263.747681 
	C231.136200,242.371506 203.041275,221.045074 174.754929,199.975586 
	C170.275726,196.639206 167.567062,193.305954 167.804504,187.371277 
	C168.073578,180.646103 165.946594,174.755325 159.559692,170.916855 
	C156.651703,169.169174 154.413986,166.306229 151.872238,163.949158 
z"/>
<path fill="#B75A5A" opacity="1.000000" stroke="none" 
	d="
M552.014160,65.163513 
	C563.391235,63.774967 574.775146,62.440094 586.143494,60.983360 
	C598.479553,59.402622 610.787109,57.592903 623.133362,56.100109 
	C633.072876,54.898335 643.060242,54.098671 653.010193,52.976223 
	C663.202576,51.826424 673.375122,50.501060 684.024475,49.195137 
	C673.608459,84.088982 663.297852,118.629967 652.615479,153.608917 
	C651.048279,154.997131 649.852844,155.947388 648.342163,156.981918 
	C645.186035,160.076431 642.474243,163.222656 639.477417,166.068665 
	C633.168457,172.060120 631.441284,178.718155 635.885437,186.548645 
	C637.869568,190.044724 636.736511,192.477905 633.765625,195.109695 
	C618.591736,208.551773 603.685120,222.294983 588.567322,235.801086 
	C577.420410,245.759613 566.092651,255.515594 554.613037,265.052795 
	C553.279663,261.625702 552.452881,258.375763 551.028320,255.413269 
	C545.991089,244.937592 540.705261,234.581772 535.595886,224.140259 
	C528.959961,210.578903 522.402649,196.979034 515.966064,183.030457 
	C516.425903,181.894501 516.786560,181.140808 517.028381,180.350754 
	C525.718750,151.961700 534.416748,123.574936 543.068665,95.174141 
	C546.110535,85.188896 549.035706,75.168083 552.014160,65.163513 
z"/>
<path fill="#63A8CE" opacity="1.000000" stroke="none" 
	d="
M259.877563,263.882263 
	C267.599762,246.895477 275.321960,229.908676 283.359070,212.334106 
	C288.615234,201.619217 293.924774,191.652740 298.425171,181.333389 
	C309.615906,155.672897 328.385559,138.429276 354.648254,129.790619 
	C355.032806,143.434128 355.089600,156.580841 356.048004,169.661514 
	C357.989990,196.166641 364.053314,221.803650 374.042053,246.436783 
	C393.258820,293.827148 425.137787,329.001007 473.498932,347.650299 
	C485.494141,352.275940 498.118683,355.269562 510.928436,359.157379 
	C510.267029,366.747253 509.563904,374.815643 508.444885,382.921143 
	C501.122559,383.688873 494.226593,384.543640 487.307709,385.126495 
	C467.851990,386.765564 448.409851,389.086365 428.919281,389.650665 
	C407.517761,390.270264 386.060974,389.466034 364.642883,388.807404 
	C355.078125,388.513275 345.545410,387.094818 336.004761,386.121765 
	C326.305298,385.132446 316.613983,384.063263 306.919098,383.029053 
	C301.351166,379.940063 301.840149,374.646515 302.012512,369.485931 
	C302.327393,360.059326 302.631165,350.632050 303.013763,341.208069 
	C303.261108,335.115082 303.640350,329.027435 303.948242,322.042358 
	C303.935913,313.267273 303.935913,305.387207 303.935913,297.384735 
	C292.052124,296.706512 281.403656,293.980042 271.794281,288.009064 
	C255.848450,278.100739 257.993317,277.376007 259.877563,263.882263 
M370.471313,256.018341 
	C363.844482,240.933197 357.217651,225.848038 350.590820,210.762894 
	C348.660187,216.313919 347.135620,221.835236 347.147614,227.353210 
	C347.219147,260.303741 347.381561,293.258850 348.047028,326.201660 
	C348.472290,347.252075 360.641998,360.474915 378.945190,368.823456 
	C391.764893,374.670898 405.635071,375.196686 419.354340,375.847321 
	C427.116882,376.215485 434.935608,375.183380 442.732788,375.086823 
	C454.476685,374.941406 465.881378,372.838989 476.815247,368.784302 
	C482.653290,366.619324 488.026733,363.201538 493.609833,360.349182 
	C465.321320,356.616089 441.775726,344.709778 421.228363,326.626740 
	C399.145538,307.192322 383.380798,283.053711 370.471313,256.018341 
z"/>
<path fill="#386177" opacity="1.000000" stroke="none" 
	d="
M306.953705,383.493927 
	C316.613983,384.063263 326.305298,385.132446 336.004761,386.121765 
	C345.545410,387.094818 355.078125,388.513275 364.642883,388.807404 
	C386.060974,389.466034 407.517761,390.270264 428.919281,389.650665 
	C448.409851,389.086365 467.851990,386.765564 487.307709,385.126495 
	C494.226593,384.543640 501.122559,383.688873 508.522156,383.382446 
	C509.017548,385.595642 509.239594,387.417542 508.977814,389.166992 
	C508.368073,393.242065 510.354828,394.840485 514.079834,395.034332 
	C513.690369,397.408478 513.300903,399.782623 512.522949,402.628418 
	C506.720215,412.969055 497.750031,414.907745 487.387482,415.237793 
	C482.147919,415.404663 476.926025,417.887573 471.811798,419.657440 
	C467.920837,421.003967 466.282532,424.408447 466.073212,428.253448 
	C465.436493,439.948608 468.489838,450.489960 476.087616,459.644897 
	C482.833618,467.773499 490.876190,475.050659 494.589661,485.304199 
	C497.694794,493.878082 502.891327,502.294373 497.600311,512.073730 
	C494.763947,512.522766 492.321625,513.125732 489.887146,513.095581 
	C473.682007,512.894958 457.478943,512.534363 441.274048,512.302368 
	C439.523834,512.277222 437.766571,512.742249 436.012573,512.979980 
	C425.132935,512.951111 424.683899,512.761475 423.111237,501.644928 
	C421.208710,488.196808 419.777954,474.682617 417.977356,461.219177 
	C416.093597,447.134125 414.121857,433.058014 411.874756,419.028229 
	C411.608124,417.363586 409.631439,415.487793 407.972748,414.653320 
	C405.874664,413.597778 403.290070,413.509216 400.035004,413.005432 
	C384.411987,413.685242 369.651825,414.108490 354.932007,415.119720 
	C342.620239,415.965515 341.246124,421.158722 342.128967,430.739166 
	C343.333923,443.815552 350.306702,454.355896 358.599701,464.131653 
	C365.133636,471.833801 371.780243,479.466614 377.840698,487.532990 
	C380.869965,491.564941 382.700134,496.497803 385.072693,501.023132 
	C385.048431,502.352661 385.005890,503.682190 385.002960,505.011749 
	C384.988312,511.636536 384.667786,511.953583 377.113220,511.935425 
	C375.920715,511.882751 375.469116,511.894287 374.695526,511.665955 
	C368.100677,510.760803 361.830322,510.071564 355.554565,509.435059 
	C341.357086,507.995178 327.156982,506.581329 312.957947,505.156891 
	C308.025024,504.924866 306.940857,501.928009 306.950348,497.542694 
	C307.032379,459.681580 306.992126,421.820129 306.953705,383.493927 
z"/>
<path fill="#FEF3BB" opacity="1.000000" stroke="none" 
	d="
M405.990631,3.081124 
	C417.267517,2.135026 427.530212,5.008339 437.404510,10.478609 
	C443.433502,13.818599 450.337250,15.563165 456.426666,18.813805 
	C470.165710,26.147930 480.273773,37.097435 486.844055,52.047897 
	C493.682343,71.320480 492.331421,89.339874 480.890778,105.402412 
	C475.140808,113.475258 466.843109,119.733498 459.371338,126.900803 
	C442.243134,136.859772 424.080658,141.275803 404.682465,139.781387 
	C397.302643,139.212860 390.016663,137.426651 382.401917,135.997955 
	C376.803589,133.418701 371.491241,131.036880 365.973694,128.402649 
	C364.194763,127.494408 362.620972,126.838608 361.032867,125.825546 
	C359.850983,124.538170 358.679688,123.612755 357.516510,122.677208 
	C346.115143,113.507034 337.163269,102.664024 334.159180,88.115540 
	C337.079956,90.478493 339.328278,93.545998 342.331787,94.789810 
	C352.850433,99.145729 363.610748,98.916023 374.538147,94.834854 
	C375.201263,94.962486 375.578888,95.045364 376.125214,95.423294 
	C397.639801,108.776878 428.478119,106.704437 447.519531,90.771225 
	C458.863373,81.279076 465.303711,69.221710 464.812103,54.200619 
	C464.565399,46.661911 462.627594,39.418495 457.129059,32.166588 
	C458.247040,38.201347 459.599030,42.854115 459.902313,47.574261 
	C461.612305,74.186394 439.405792,94.604042 414.320190,97.061226 
	C402.397705,98.229057 391.191040,95.781670 380.203735,90.616821 
	C379.109253,89.621292 378.208923,88.906990 377.749451,88.154976 
	C383.409241,88.294495 384.367432,84.762955 383.954590,80.816406 
	C382.755798,69.356224 385.929962,59.574203 392.667572,50.105694 
	C399.567627,40.408798 405.508301,29.795605 407.438843,17.740438 
	C408.209991,12.924928 409.914490,7.608688 405.990631,3.081124 
z"/>
<path fill="#B75A5A" opacity="1.000000" stroke="none" 
	d="
M333.832977,87.983818 
	C337.163269,102.664024 346.115143,113.507034 357.516510,122.677208 
	C358.679688,123.612755 359.850983,124.538170 360.867554,126.112198 
	C358.720551,127.592056 356.724548,128.428009 354.728516,129.263947 
	C328.385559,138.429276 309.615906,155.672897 298.425171,181.333389 
	C293.924774,191.652740 288.615234,201.619217 283.418640,211.984711 
	C279.432831,188.561295 275.743866,164.892853 271.958313,141.239883 
	C269.138947,123.623856 266.117920,106.039932 263.335449,88.418228 
	C261.738251,78.303070 260.437653,68.141068 259.007080,57.580742 
	C264.738037,56.107658 270.445282,54.924747 276.197021,54.027031 
	C288.428986,52.117893 300.680420,50.331665 312.931030,48.544113 
	C321.314453,47.320843 329.709961,46.180378 338.452209,45.357182 
	C332.322357,59.234829 328.409515,73.060333 333.832977,87.983818 
z"/>
<path fill="#E8CDBA" opacity="1.000000" stroke="none" 
	d="
M436.047241,513.393860 
	C437.766571,512.742249 439.523834,512.277222 441.274048,512.302368 
	C457.478943,512.534363 473.682007,512.894958 489.887146,513.095581 
	C492.321625,513.125732 494.763947,512.522766 497.930328,512.145874 
	C499.443573,512.378845 500.229095,512.678650 501.014648,512.978455 
	C500.988037,514.358459 500.961426,515.738403 500.764221,517.639404 
	C500.535492,518.271729 500.400146,518.423462 500.433411,518.486816 
	C500.544739,518.698914 500.716248,518.879456 500.864746,519.072083 
	C500.542175,521.087524 500.219635,523.102905 499.550232,525.588989 
	C495.992737,530.485779 492.971649,535.253723 486.863007,535.934204 
	C482.084290,536.466553 478.995880,539.109558 478.086639,543.518738 
	C476.124969,553.031799 473.606445,562.606201 473.232513,572.229919 
	C472.646698,587.307373 473.592102,602.447876 473.988068,617.559082 
	C474.605652,641.125549 475.137085,664.696167 476.023376,688.253113 
	C476.777252,708.289795 478.049500,728.306396 478.960236,748.337891 
	C479.542236,761.137512 485.936188,770.048706 496.871246,776.098755 
	C499.191864,780.280396 502.952026,783.913635 501.551910,789.631775 
	C496.981323,788.581238 492.809113,786.276672 488.585114,786.177612 
	C481.390930,786.008850 474.164185,787.226257 466.951141,787.861328 
	C467.639954,777.452759 469.046021,767.028442 468.817383,756.640076 
	C468.585297,746.093750 466.882446,735.565063 465.565765,725.061035 
	C463.858887,711.444214 461.914185,697.856995 460.038818,684.261597 
	C458.615082,673.940308 457.119385,663.629028 455.692169,653.308228 
	C453.789642,639.550354 451.935242,625.785767 450.036743,612.027344 
	C447.934357,596.791382 445.818542,581.557312 443.684357,566.325806 
	C441.826019,553.062988 439.947266,539.802917 438.048981,526.545715 
	C437.440063,522.293030 436.740173,518.053345 436.047241,513.393860 
z"/>
<path fill="#FFE8D7" opacity="1.000000" stroke="none" 
	d="
M375.017548,511.905792 
	C375.469116,511.894287 375.920715,511.882751 376.692688,511.986328 
	C375.572662,523.894897 374.239441,535.702698 372.663300,547.478027 
	C370.891052,560.718567 368.891632,573.928528 367.005646,587.153931 
	C364.747131,602.991821 362.446564,618.824036 360.272095,634.673523 
	C358.433075,648.078186 356.795319,661.510437 354.979370,674.918396 
	C353.584442,685.217651 352.046722,695.497559 350.580048,705.787109 
	C348.717957,718.850830 347.242676,731.984131 344.900604,744.961060 
	C342.493500,758.298462 345.878998,770.901855 348.337433,783.697144 
	C348.769226,785.944458 348.704498,788.287109 348.575806,790.955322 
	C348.282593,791.324890 348.006714,790.979736 348.004517,790.604858 
	C345.475952,785.798523 343.516998,780.892883 340.297821,777.040405 
	C334.652191,770.284058 331.906616,762.663635 332.070770,754.148621 
	C332.515900,731.058533 333.326385,707.975403 333.985626,684.889404 
	C334.336670,672.596619 334.624298,660.301697 335.037567,648.011047 
	C335.271698,641.047852 335.608582,634.085144 336.062164,627.132874 
	C337.324127,607.790283 338.808167,588.461243 339.931458,569.110962 
	C340.566650,558.168640 340.055573,547.133240 341.161957,536.251709 
	C342.468292,523.403687 345.057648,520.685791 356.000092,518.232849 
	C358.231049,517.732727 360.719940,518.397949 362.959106,517.916931 
	C367.439850,516.954285 372.845184,517.579468 375.017548,511.905792 
z"/>
<path fill="#E8CDBA" opacity="1.000000" stroke="none" 
	d="
M374.695526,511.665955 
	C372.845184,517.579468 367.439850,516.954285 362.959106,517.916931 
	C360.719940,518.397949 358.231049,517.732727 356.000092,518.232849 
	C345.057648,520.685791 342.468292,523.403687 341.161957,536.251709 
	C340.055573,547.133240 340.566650,558.168640 339.931458,569.110962 
	C338.808167,588.461243 337.324127,607.790283 336.062164,627.132874 
	C335.608582,634.085144 335.271698,641.047852 335.037567,648.011047 
	C334.624298,660.301697 334.336670,672.596619 333.985626,684.889404 
	C333.326385,707.975403 332.515900,731.058533 332.070770,754.148621 
	C331.906616,762.663635 334.652191,770.284058 340.297821,777.040405 
	C343.516998,780.892883 345.475952,785.798523 347.634155,790.521240 
	C344.881989,790.174988 342.500427,789.004333 340.113586,788.993408 
	C330.534760,788.949524 320.954315,789.265076 311.374451,789.447754 
	C313.695343,781.162109 315.464996,772.671021 318.459229,764.636353 
	C323.667236,750.661011 321.577423,736.528076 320.618408,722.360046 
	C320.541016,721.216614 320.078888,720.093262 320.047363,718.953552 
	C319.671021,705.343201 319.403229,691.729675 318.986969,678.120605 
	C318.373291,658.058411 317.680359,637.998657 316.988098,617.938965 
	C316.347534,599.377258 315.663544,580.817139 314.998505,562.256287 
	C314.327454,543.528381 313.656097,524.800476 312.971405,505.614746 
	C327.156982,506.581329 341.357086,507.995178 355.554565,509.435059 
	C361.830322,510.071564 368.100677,510.760803 374.695526,511.665955 
z"/>
<path fill="#D66363" opacity="1.000000" stroke="none" 
	d="
M459.697571,126.812347 
	C466.843109,119.733498 475.140808,113.475258 480.890778,105.402412 
	C492.331421,89.339874 493.682343,71.320480 486.986816,52.365532 
	C502.206635,54.978748 517.407104,57.956459 532.593079,61.006302 
	C538.817139,62.256294 545.009888,63.662022 551.615540,65.080208 
	C549.035706,75.168083 546.110535,85.188896 543.068665,95.174141 
	C534.416748,123.574936 525.718750,151.961700 517.028381,180.350754 
	C516.786560,181.140808 516.425903,181.894501 515.707031,182.775909 
	C512.897766,178.130066 510.648071,173.293121 508.080414,168.631302 
	C498.630768,151.474548 485.351044,138.433731 467.015137,130.938416 
	C467.003448,130.966888 467.063171,130.980698 466.894196,130.729630 
	C466.154724,130.300385 465.584259,130.122208 464.822083,129.669098 
	C462.986115,128.533554 461.341858,127.672951 459.697571,126.812347 
z"/>
<path fill="#FFE8D7" opacity="1.000000" stroke="none" 
	d="
M496.910553,775.689819 
	C485.936188,770.048706 479.542236,761.137512 478.960236,748.337891 
	C478.049500,728.306396 476.777252,708.289795 476.023376,688.253113 
	C475.137085,664.696167 474.605652,641.125549 473.988068,617.559082 
	C473.592102,602.447876 472.646698,587.307373 473.232513,572.229919 
	C473.606445,562.606201 476.124969,553.031799 478.086639,543.518738 
	C478.995880,539.109558 482.084290,536.466553 486.863007,535.934204 
	C492.971649,535.253723 495.992737,530.485779 499.528198,525.975464 
	C499.559662,543.170776 499.322357,560.451477 498.942261,577.729065 
	C498.811188,583.686890 498.213593,589.633240 498.019745,595.591064 
	C497.301849,617.658447 496.674744,639.728821 495.990082,661.797302 
	C495.686493,671.583313 495.331085,681.367737 494.991821,691.152588 
	C494.330597,710.223083 493.161530,729.294922 493.220856,748.363037 
	C493.248779,757.339355 495.633240,766.308472 496.910553,775.689819 
z"/>
<path fill="#F1D7C5" opacity="1.000000" stroke="none" 
	d="
M259.585938,263.747681 
	C257.993317,277.376007 255.848450,278.100739 271.794281,288.009064 
	C281.403656,293.980042 292.052124,296.706512 303.935913,297.384735 
	C303.935913,305.387207 303.935913,313.267273 303.883789,321.621033 
	C298.983734,328.604370 294.812195,329.991577 287.669952,325.754150 
	C271.313263,316.049988 254.855225,306.314941 244.023514,288.995239 
	C219.857208,262.943024 196.018417,237.434219 171.872803,212.219208 
	C169.084564,209.307465 164.590210,208.029465 160.886871,205.993988 
	C156.149506,203.280731 151.343567,200.679047 146.694672,197.821838 
	C142.326996,195.137421 140.656647,191.027588 141.023315,185.944550 
	C141.427582,180.340317 141.511108,174.708603 142.063400,169.121384 
	C142.302185,166.705658 142.700439,163.225189 144.245560,162.327805 
	C145.742950,161.458160 148.804520,163.281693 151.525665,163.935791 
	C154.413986,166.306229 156.651703,169.169174 159.559692,170.916855 
	C165.946594,174.755325 168.073578,180.646103 167.804504,187.371277 
	C167.567062,193.305954 170.275726,196.639206 174.754929,199.975586 
	C203.041275,221.045074 231.136200,242.371506 259.585938,263.747681 
z"/>
<path fill="#E5D8A3" opacity="1.000000" stroke="none" 
	d="
M334.159180,88.115540 
	C328.409515,73.060333 332.322357,59.234829 338.889465,45.364956 
	C345.119507,33.841587 354.220154,25.582279 364.988251,19.088560 
	C372.309143,14.673676 379.550446,9.929522 387.368042,6.603405 
	C392.797333,4.293441 399.145721,4.143713 405.537048,3.054991 
	C409.914490,7.608688 408.209991,12.924928 407.438843,17.740438 
	C405.508301,29.795605 399.567627,40.408798 392.667572,50.105694 
	C385.929962,59.574203 382.755798,69.356224 383.954590,80.816406 
	C384.367432,84.762955 383.409241,88.294495 377.458801,88.076660 
	C357.914429,75.092300 352.285706,57.315922 357.999329,34.934048 
	C353.973938,39.984234 350.916046,50.609283 351.333893,56.546906 
	C352.504669,73.184219 360.465454,85.726692 374.252686,94.790115 
	C363.610748,98.916023 352.850433,99.145729 342.331787,94.789810 
	C339.328278,93.545998 337.079956,90.478493 334.159180,88.115540 
z"/>
<path fill="#D66363" opacity="1.000000" stroke="none" 
	d="
M160.928986,206.413239 
	C164.590210,208.029465 169.084564,209.307465 171.872803,212.219208 
	C196.018417,237.434219 219.857208,262.943024 243.891586,288.683533 
	C223.907150,299.307983 203.818512,309.613251 183.264465,320.157257 
	C181.472992,311.658295 179.642731,303.442505 178.023376,295.185333 
	C175.481598,282.224823 173.126221,269.227844 170.610596,256.262115 
	C167.785583,241.701797 164.865997,227.159851 161.999207,212.607635 
	C161.621338,210.689499 161.312119,208.757874 160.928986,206.413239 
z"/>
<path fill="#12232A" opacity="1.000000" stroke="none" 
	d="
M354.648254,129.790619 
	C356.724548,128.428009 358.720551,127.592056 360.881897,126.469452 
	C362.620972,126.838608 364.194763,127.494408 365.921997,128.847809 
	C365.061310,139.090286 362.935486,148.676193 363.286041,158.170670 
	C363.852600,173.515335 364.850098,189.034622 367.795227,204.062820 
	C374.745667,239.528900 393.232849,269.118896 418.338745,294.522308 
	C427.739136,304.034058 438.416168,312.406464 449.140839,320.459717 
	C467.168335,333.996735 486.930206,344.632660 507.937286,352.867218 
	C508.670044,353.154449 509.895721,352.184265 510.940308,351.346649 
	C510.755829,342.654724 510.522675,334.416260 510.571167,326.329895 
	C512.908752,327.627563 514.964661,328.773163 517.020569,329.918762 
	C517.020569,331.177246 517.020569,332.435699 517.020569,333.610870 
	C520.107361,335.229706 525.678894,331.522797 525.585327,338.575806 
	C523.263428,338.991028 521.341125,338.991028 518.991699,338.991028 
	C518.991699,348.859558 518.946655,357.909607 519.004517,366.959015 
	C519.060913,375.771149 520.596497,383.877136 529.805786,388.019348 
	C530.189514,394.888489 530.128662,394.957092 523.399231,394.973816 
	C520.598450,394.980774 517.797729,394.974579 514.538391,395.004333 
	C510.354828,394.840485 508.368073,393.242065 508.977814,389.166992 
	C509.239594,387.417542 509.017548,385.595642 508.938080,383.345367 
	C509.563904,374.815643 510.267029,366.747253 510.928436,359.157379 
	C498.118683,355.269562 485.494141,352.275940 473.498932,347.650299 
	C425.137787,329.001007 393.258820,293.827148 374.042053,246.436783 
	C364.053314,221.803650 357.989990,196.166641 356.048004,169.661514 
	C355.089600,156.580841 355.032806,143.434128 354.648254,129.790619 
z"/>
<path fill="#4C788C" opacity="1.000000" stroke="none" 
	d="
M385.422363,500.811523 
	C382.700134,496.497803 380.869965,491.564941 377.840698,487.532990 
	C371.780243,479.466614 365.133636,471.833801 358.599701,464.131653 
	C350.306702,454.355896 343.333923,443.815552 342.128967,430.739166 
	C341.246124,421.158722 342.620239,415.965515 354.932007,415.119720 
	C369.651825,414.108490 384.411987,413.685242 399.630005,413.028259 
	C398.070465,424.049774 395.881256,435.024567 394.042603,446.057770 
	C392.063446,457.933990 390.414062,469.865112 388.618561,481.771973 
	C387.672089,488.048279 386.721008,494.323944 385.422363,500.811523 
z"/>
<path fill="#4C788C" opacity="1.000000" stroke="none" 
	d="
M501.368408,512.868286 
	C500.229095,512.678650 499.443573,512.378845 498.328003,512.006958 
	C502.891327,502.294373 497.694794,493.878082 494.589661,485.304199 
	C490.876190,475.050659 482.833618,467.773499 476.087616,459.644897 
	C468.489838,450.489960 465.436493,439.948608 466.073212,428.253448 
	C466.282532,424.408447 467.920837,421.003967 471.811798,419.657440 
	C476.926025,417.887573 482.147919,415.404663 487.387482,415.237793 
	C497.750031,414.907745 506.720215,412.969055 512.461670,403.033813 
	C512.205444,412.463013 511.604553,421.957397 511.044922,431.454254 
	C510.667206,437.864502 510.278900,444.275360 510.018219,450.690948 
	C509.622711,460.423126 509.469299,470.166718 508.960876,479.892242 
	C508.472443,489.235901 507.919586,498.594482 506.774414,507.869843 
	C506.550964,509.679596 503.479889,511.137787 501.368408,512.868286 
z"/>
<path fill="#E8CCBA" opacity="1.000000" stroke="none" 
	d="
M517.457031,329.948608 
	C514.964661,328.773163 512.908752,327.627563 510.468140,325.897522 
	C510.391632,322.147003 510.699829,318.980957 511.043579,315.698181 
	C511.079132,315.581482 511.076019,315.337494 511.305298,315.167175 
	C511.714813,314.667114 511.895020,314.337311 512.352112,313.818237 
	C514.089172,312.564758 515.532532,311.476532 517.012817,310.441101 
	C520.621460,307.916962 524.247192,305.417297 528.224731,302.942200 
	C538.165894,297.642792 544.508484,289.040558 550.183777,280.168762 
	C552.875488,275.960968 553.360657,270.341675 554.845459,265.361847 
	C566.092651,255.515594 577.420410,245.759613 588.567322,235.801086 
	C603.685120,222.294983 618.591736,208.551773 633.765625,195.109695 
	C636.736511,192.477905 637.869568,190.044724 635.885437,186.548645 
	C631.441284,178.718155 633.168457,172.060120 639.477417,166.068665 
	C642.474243,163.222656 645.186035,160.076431 648.695312,157.119446 
	C652.471191,159.517685 650.111450,161.521606 648.945068,163.575653 
	C645.137695,170.280426 641.743591,176.992538 643.856384,185.194458 
	C644.449097,187.495377 643.764771,190.131393 643.630188,192.611740 
	C643.505798,194.904968 643.333252,197.195572 643.175659,199.582001 
	C638.938477,197.470062 635.807312,200.599167 632.540771,203.919846 
	C623.352112,213.261017 613.652527,222.128174 604.855713,231.818817 
	C594.509827,243.215851 584.383484,254.893448 575.151428,267.192169 
	C568.822510,275.623535 564.142090,285.299164 558.805420,294.465576 
	C556.416138,298.569458 554.224548,302.788391 551.943237,306.955139 
	C544.891907,313.334381 537.883301,319.761780 530.771545,326.072968 
	C527.124573,329.309357 522.775085,330.618439 517.457031,329.948608 
z"/>
<path fill="#B75A5A" opacity="1.000000" stroke="none" 
	d="
M633.228271,216.914780 
	C629.816589,228.464279 626.448425,240.026855 622.983826,251.560455 
	C616.339722,273.678925 609.644043,295.781891 602.948547,317.884857 
	C602.767700,318.481903 602.343994,319.005310 601.886414,319.827362 
	C587.785461,313.181030 573.815552,306.596436 559.523071,299.637970 
	C559.668640,298.581543 560.068604,297.838226 560.614807,297.225281 
	C583.680420,271.340881 606.752380,245.462219 629.859558,219.615005 
	C630.805603,218.556808 632.097534,217.807831 633.228271,216.914780 
z"/>
<path fill="#FEE7D6" opacity="1.000000" stroke="none" 
	d="
M633.489258,216.735809 
	C632.097534,217.807831 630.805603,218.556808 629.859558,219.615005 
	C606.752380,245.462219 583.680420,271.340881 560.614807,297.225281 
	C560.068604,297.838226 559.668640,298.581543 559.158813,299.594116 
	C556.935364,302.187836 554.753601,304.451477 552.257568,306.835114 
	C554.224548,302.788391 556.416138,298.569458 558.805420,294.465576 
	C564.142090,285.299164 568.822510,275.623535 575.151428,267.192169 
	C584.383484,254.893448 594.509827,243.215851 604.855713,231.818817 
	C613.652527,222.128174 623.352112,213.261017 632.540771,203.919846 
	C635.807312,200.599167 638.938477,197.470062 643.175659,199.582001 
	C643.333252,197.195572 643.505798,194.904968 643.630188,192.611740 
	C643.764771,190.131393 644.449097,187.495377 643.856384,185.194458 
	C641.743591,176.992538 645.137695,170.280426 648.945068,163.575653 
	C650.111450,161.521606 652.471191,159.517685 649.010559,157.035156 
	C649.852844,155.947388 651.048279,154.997131 652.575989,154.009964 
	C654.036316,155.172302 655.901062,156.226685 656.170044,157.594879 
	C657.660461,165.173813 658.815491,172.821045 659.976135,180.461487 
	C660.598999,184.561584 658.772339,187.583160 656.010010,190.642334 
	C648.380676,199.091400 641.142883,207.894012 633.489258,216.735809 
z"/>
<path fill="#254350" opacity="1.000000" stroke="none" 
	d="
M529.893188,387.572723 
	C520.596497,383.877136 519.060913,375.771149 519.004517,366.959015 
	C518.946655,357.909607 518.991699,348.859558 518.991699,338.991028 
	C521.341125,338.991028 523.263428,338.991028 525.634399,338.981110 
	C529.156128,338.643311 530.121521,340.134369 530.046204,343.064728 
	C529.901184,348.708313 530.010742,354.358429 529.755310,360.675720 
	C529.699829,366.917908 529.903931,372.490234 530.108032,378.062561 
	C530.065552,381.083740 530.023010,384.104919 529.893188,387.572723 
z"/>
<path fill="#6E5750" opacity="1.000000" stroke="none" 
	d="
M466.541077,787.939331 
	C474.164185,787.226257 481.390930,786.008850 488.585114,786.177612 
	C492.809113,786.276672 496.981323,788.581238 501.491272,790.061035 
	C502.387451,792.445984 503.895172,795.006653 503.242950,796.767029 
	C502.765167,798.056580 499.466766,798.846741 497.398499,798.905396 
	C489.112671,799.140015 480.816254,799.014160 472.523804,798.998779 
	C465.592163,798.985901 463.068451,794.635193 466.541077,787.939331 
z"/>
<path fill="#6E5750" opacity="1.000000" stroke="none" 
	d="
M311.078949,789.673950 
	C320.954315,789.265076 330.534760,788.949524 340.113586,788.993408 
	C342.500427,789.004333 344.881989,790.174988 347.636353,790.896118 
	C348.006714,790.979736 348.282593,791.324890 348.481995,791.420532 
	C350.801025,796.065063 349.368713,798.876892 344.513245,798.952087 
	C334.252136,799.110962 323.984924,799.099854 313.725555,798.892456 
	C312.220856,798.862122 309.602631,797.506226 309.490631,796.534241 
	C309.244873,794.400879 310.274506,792.120544 311.078949,789.673950 
z"/>
<path fill="#254350" opacity="1.000000" stroke="none" 
	d="
M530.975220,361.161438 
	C533.384766,360.501892 534.147522,361.466858 534.042114,363.874878 
	C533.841370,368.458221 533.873962,373.051758 533.228149,377.405182 
	C532.089478,371.833344 531.532349,366.497375 530.975220,361.161438 
z"/>
<path fill="#12232A" opacity="1.000000" stroke="none" 
	d="
M530.764160,361.085663 
	C531.532349,366.497375 532.089478,371.833344 532.803223,377.509918 
	C532.247192,377.900208 531.534546,377.949890 530.464966,378.031067 
	C529.903931,372.490234 529.699829,366.917908 529.803894,361.137604 
	C530.112000,360.929626 530.553162,361.009888 530.764160,361.085663 
z"/>
<path fill="#FFE8D7" opacity="1.000000" stroke="none" 
	d="
M500.900970,518.791504 
	C500.716248,518.879456 500.544739,518.698914 500.433411,518.486816 
	C500.400146,518.423462 500.535492,518.271729 500.749146,518.053162 
	C500.915497,518.134155 500.926331,518.322510 500.900970,518.791504 
z"/>
<path fill="#8ACFFE" opacity="1.000000" stroke="none" 
	d="
M554.613037,265.052795 
	C553.360657,270.341675 552.875488,275.960968 550.183777,280.168762 
	C544.508484,289.040558 538.165894,297.642792 528.273071,302.549072 
	C531.105164,294.084656 529.265503,286.270935 527.270874,278.316284 
	C519.710999,248.167419 512.448669,217.943970 504.888550,187.795181 
	C502.769379,179.344177 501.436279,170.377319 493.892212,164.417450 
	C489.865448,161.236313 485.748352,158.164093 481.811798,154.875412 
	C474.236694,148.547058 468.655182,140.933517 467.026825,130.909958 
	C485.351044,138.433731 498.630768,151.474548 508.080414,168.631302 
	C510.648071,173.293121 512.897766,178.130066 515.552429,183.141205 
	C522.402649,196.979034 528.959961,210.578903 535.595886,224.140259 
	C540.705261,234.581772 545.991089,244.937592 551.028320,255.413269 
	C552.452881,258.375763 553.279663,261.625702 554.613037,265.052795 
z"/>
<path fill="#8AD0FF" opacity="1.000000" stroke="none" 
	d="
M370.648926,256.347015 
	C383.380798,283.053711 399.145538,307.192322 421.228363,326.626740 
	C441.775726,344.709778 465.321320,356.616089 493.609833,360.349182 
	C488.026733,363.201538 482.653290,366.619324 476.815247,368.784302 
	C465.881378,372.838989 454.476685,374.941406 442.732788,375.086823 
	C434.935608,375.183380 427.116882,376.215485 419.354340,375.847321 
	C405.635071,375.196686 391.764893,374.670898 378.945190,368.823456 
	C360.641998,360.474915 348.472290,347.252075 348.047028,326.201660 
	C347.381561,293.258850 347.219147,260.303741 347.147614,227.353210 
	C347.135620,221.835236 348.660187,216.313919 350.590820,210.762894 
	C357.217651,225.848038 363.844482,240.933197 370.648926,256.347015 
z"/>
<path fill="#64A9CE" opacity="1.000000" stroke="none" 
	d="
M467.015137,130.938416 
	C468.655182,140.933517 474.236694,148.547058 481.811798,154.875412 
	C485.748352,158.164093 489.865448,161.236313 493.892212,164.417450 
	C501.436279,170.377319 502.769379,179.344177 504.888550,187.795181 
	C512.448669,217.943970 519.710999,248.167419 527.270874,278.316284 
	C529.265503,286.270935 531.105164,294.084656 527.914307,302.514648 
	C524.247192,305.417297 520.621460,307.916962 517.012817,310.441101 
	C515.532532,311.476532 514.089172,312.564758 512.089661,313.953857 
	C511.392212,314.631683 511.234131,314.984589 511.076050,315.337494 
	C511.076019,315.337494 511.079132,315.581482 510.669586,315.795471 
	C506.910095,317.866638 504.901672,316.815948 503.145233,313.452271 
	C498.297058,304.167938 497.553711,294.020752 497.154572,283.979706 
	C496.389282,264.728088 496.442871,245.445358 495.972412,226.180038 
	C495.626160,212.002472 493.266266,198.128769 487.806274,184.988541 
	C481.672699,170.227295 471.343994,160.600845 454.889435,157.804840 
	C443.187195,155.816315 432.175873,158.723694 420.968323,160.579483 
	C411.545441,162.139771 402.268524,165.150864 392.558929,162.977264 
	C388.717285,162.117279 384.926788,161.028992 381.057434,159.591522 
	C381.563904,151.490723 382.125916,143.843079 382.687927,136.195419 
	C390.016663,137.426651 397.302643,139.212860 404.682465,139.781387 
	C424.080658,141.275803 442.243134,136.859772 459.371338,126.900803 
	C461.341858,127.672951 462.986115,128.533554 464.988403,129.927383 
	C465.918671,130.633972 466.490906,130.807343 467.063171,130.980698 
	C467.063171,130.980698 467.003448,130.966888 467.015137,130.938416 
z"/>
<path fill="#254350" opacity="1.000000" stroke="none" 
	d="
M382.401917,135.997955 
	C382.125916,143.843079 381.563904,151.490723 381.011658,160.053253 
	C380.908508,189.247040 385.775299,216.569168 397.610687,242.352982 
	C421.102997,293.531677 460.554504,328.334045 510.891632,351.800110 
	C509.895721,352.184265 508.670044,353.154449 507.937286,352.867218 
	C486.930206,344.632660 467.168335,333.996735 449.140839,320.459717 
	C438.416168,312.406464 427.739136,304.034058 418.338745,294.522308 
	C393.232849,269.118896 374.745667,239.528900 367.795227,204.062820 
	C364.850098,189.034622 363.852600,173.515335 363.286041,158.170670 
	C362.935486,148.676193 365.061310,139.090286 366.127197,129.100250 
	C371.491241,131.036880 376.803589,133.418701 382.401917,135.997955 
z"/>
<path fill="#9E8D7C" opacity="1.000000" stroke="none" 
	d="
M380.397858,90.898071 
	C391.191040,95.781670 402.397705,98.229057 414.320190,97.061226 
	C439.405792,94.604042 461.612305,74.186394 459.902313,47.574261 
	C459.599030,42.854115 458.247040,38.201347 457.129059,32.166588 
	C462.627594,39.418495 464.565399,46.661911 464.812103,54.200619 
	C465.303711,69.221710 458.863373,81.279076 447.519531,90.771225 
	C428.478119,106.704437 397.639801,108.776878 376.257568,95.105659 
	C377.613495,93.294670 379.005676,92.096375 380.397858,90.898071 
z"/>
<path fill="#847364" opacity="1.000000" stroke="none" 
	d="
M380.203735,90.616837 
	C379.005676,92.096375 377.613495,93.294670 376.088928,94.810608 
	C375.578888,95.045364 375.201263,94.962486 374.538147,94.834854 
	C360.465454,85.726692 352.504669,73.184219 351.333893,56.546906 
	C350.916046,50.609283 353.973938,39.984234 357.999329,34.934048 
	C352.285706,57.315922 357.914429,75.092300 377.017944,88.114380 
	C378.208923,88.906990 379.109253,89.621292 380.203735,90.616837 
z"/>
<path fill="#8ACFFE" opacity="1.000000" stroke="none" 
	d="
M466.894196,130.729630 
	C466.490906,130.807343 465.918671,130.633972 465.180084,130.202332 
	C465.584259,130.122208 466.154724,130.300385 466.894196,130.729630 
z"/>
<path fill="#8AD0FF" opacity="1.000000" stroke="none" 
	d="
M510.940308,351.346619 
	C460.554504,328.334045 421.102997,293.531677 397.610687,242.352982 
	C385.775299,216.569168 380.908508,189.247040 381.067230,160.506378 
	C384.926788,161.028992 388.717285,162.117279 392.558929,162.977264 
	C402.268524,165.150864 411.545441,162.139771 420.968323,160.579483 
	C432.175873,158.723694 443.187195,155.816315 454.889435,157.804840 
	C471.343994,160.600845 481.672699,170.227295 487.806274,184.988541 
	C493.266266,198.128769 495.626160,212.002472 495.972412,226.180038 
	C496.442871,245.445358 496.389282,264.728088 497.154572,283.979706 
	C497.553711,294.020752 498.297058,304.167938 503.145233,313.452271 
	C504.901672,316.815948 506.910095,317.866638 510.634033,315.912170 
	C510.699829,318.980957 510.391632,322.147003 510.186462,325.745422 
	C510.522675,334.416260 510.755829,342.654724 510.940308,351.346619 
z"/>
<path fill="#8AD0FF" opacity="1.000000" stroke="none" 
	d="
M511.305328,315.167175 
	C511.234131,314.984589 511.392212,314.631683 511.812805,314.143127 
	C511.895020,314.337311 511.714813,314.667114 511.305328,315.167175 
z"/>
</svg>